# xmcd CD database file
#
# Track frame offsets:
#	150
#	9224
#	23871
#	37299
#	51641
#	71084
#	85871
#	94726
#	110400
#	121354
#	137395
#	152549
#	154503
#	162709
#	174528
#	182552
#	191103
#	195259
#	210453
#	217386
#	230627
#	241052
#	244799
#	252761
#	263702
#
# Disc length: 4298 seconds
#
# Revision: 0
# Processed by: cddbd v1.5.2PL0 Copyright (c) Steve Scherf et al.
# Submitted via: CDex 1.70beta2
#
DISCID=5c10c819
DTITLE=Various Artist - Clarino Vol.9 - Schott 'Harmonie' Serie
DYEAR=2007
DGENRE=Blasmusik
TTITLE0=Ernst Toch (1897-1964) - Spiel op.39 - Overtüre
TTITLE1=Ernst Toch (1897-1964) - Spiel op.39 - Idyll
TTITLE2=Ernst Toch (1897-1964) - Spiel op.39 - Buffo
TTITLE3=Hans Gál (1890-1987) - Promenadenmusik - Gavotte
TTITLE4=Hans Gál (1890-1987) - Promenadenmusik - Ländler
TTITLE5=Hans Gál (1890-1987) - Promenadenmusik - Marsch
TTITLE6=Hans Werner Henze (*1926) - Ragtimes and Habaneras - Nr.I-II
TTITLE7=Hans Werner Henze (*1926) - Ragtimes and Habaneras - Nr.III-IV
TTITLE8=Hans Werner Henze (*1926) - Ragtimes and Habaneras - Nr.V-VI
TTITLE9=Hans Werner Henze (*1926) - Ragtimes and Habaneras - Nr.VII-VIII
TTITLE10=Hans Werner Henze (*1926) - Ragtimes and Habaneras - Nr.IX-XI
TTITLE11=Carl Orff (1895-1982) - Carmina Burana - O Fortuna, velut Luna
TTITLE12=Carl Orff (1895-1982) - Carmina Burana - Fortune plango vulnera
TTITLE13=Carl Orff (1895-1982) - Carmina Burana - Ecce gratum
TTITLE14=Carl Orff (1895-1982) - Carmina Burana - Tanz - Uf dem anger
TTITLE15=Carl Orff (1895-1982) - Carmina Burana - Floret silva
TTITLE16=Carl Orff (1895-1982) - Carmina Burana - Were diu werlt alle min
TTITLE17=Carl Orff (1895-1982) - Carmina Burana - Amor volat undique
TTITLE18=Carl Orff (1895-1982) - Carmina Burana - Eggo sum abbas
TTITLE19=Carl Orff (1895-1982) - Carmina Burana - In taberna quando sumus
TTITLE20=Carl Orff (1895-1982) - Carmina Burana - In trutina
TTITLE21=Carl Orff (1895-1982) - Carmina Burana - Dulcissime
TTITLE22=Carl Orff (1895-1982) - Carmina Burana - Ave formosissima
TTITLE23=Carl Orff (1895-1982) - Carmina Burana - Fortuna Imperatrix Mundi
TTITLE24=Stephan Adam (1954) - Mouvement symphonique
EXTD=YEAR: 2007
EXTT0=
EXTT1=
EXTT2=
EXTT3=
EXTT4=
EXTT5=
EXTT6=
EXTT7=
EXTT8=
EXTT9=
EXTT10=
EXTT11=
EXTT12=
EXTT13=
EXTT14=
EXTT15=
EXTT16=
EXTT17=
EXTT18=
EXTT19=
EXTT20=
EXTT21=
EXTT22=
EXTT23=
EXTT24=
PLAYORDER=
